<?xml version="1.0" encoding="UTF-8" standalone="no"?>
<!-- Created with Inkscape (http://www.inkscape.org/) -->

<svg
   xmlns:dc="http://purl.org/dc/elements/1.1/"
   xmlns:cc="http://creativecommons.org/ns#"
   xmlns:rdf="http://www.w3.org/1999/02/22-rdf-syntax-ns#"
   xmlns:svg="http://www.w3.org/2000/svg"
   xmlns="http://www.w3.org/2000/svg"
   xmlns:sodipodi="http://sodipodi.sourceforge.net/DTD/sodipodi-0.dtd"
   xmlns:inkscape="http://www.inkscape.org/namespaces/inkscape"
   width="256"
   height="256"
   viewBox="0 0 67.733331 67.733331"
   version="1.1"
   id="svg8"
   inkscape:version="0.92.2 (5c3e80d, 2017-08-06)"
   sodipodi:docname="SRTV.svg">
  <defs
     id="defs2" />
  <sodipodi:namedview
     id="base"
     pagecolor="#ffffff"
     bordercolor="#666666"
     borderopacity="1.0"
     inkscape:pageopacity="0.0"
     inkscape:pageshadow="2"
     inkscape:zoom="1"
     inkscape:cx="80.458521"
     inkscape:cy="161.1767"
     inkscape:document-units="mm"
     inkscape:current-layer="layer1"
     showgrid="false"
     units="px"
     inkscape:snap-grids="true"
     inkscape:window-width="1393"
     inkscape:window-height="1002"
     inkscape:window-x="2431"
     inkscape:window-y="0"
     inkscape:window-maximized="0">
    <inkscape:grid
       type="xygrid"
       id="grid4506"
       spacingx="4.2333332"
       spacingy="4.2333332"
       dotted="false"
       empspacing="4" />
  </sodipodi:namedview>
  <metadata
     id="metadata5">
    <rdf:RDF>
      <cc:Work
         rdf:about="">
        <dc:format>image/svg+xml</dc:format>
        <dc:type
           rdf:resource="http://purl.org/dc/dcmitype/StillImage" />
        <dc:title></dc:title>
      </cc:Work>
    </rdf:RDF>
  </metadata>
  <g
     inkscape:label="Layer 1"
     inkscape:groupmode="layer"
     id="layer1"
     transform="translate(0,-229.26668)">
    <path
       style="fill:#009aff;fill-opacity:1;stroke:none;stroke-width:0.93541414;stroke-opacity:1"
       d="M 32 80 C 23.163449 80 16.000008 87.163465 16 96 L 16 208 C 16.000015 216.83654 23.163449 224 32 224 L 224 224 C 232.83655 224 239.99999 216.83654 240 208 L 240 96 C 239.99999 87.163465 232.83655 80 224 80 L 32 80 z M 32 96 L 192 96 L 192 208 L 32 208 L 32 96 z M 216 96 A 7.9999996 7.9999996 0 0 1 224 104 A 7.9999996 7.9999996 0 0 1 216 112 A 7.9999996 7.9999996 0 0 1 208 104 A 7.9999996 7.9999996 0 0 1 216 96 z M 216 128 A 7.9999996 7.9999996 0 0 1 224 136 A 7.9999996 7.9999996 0 0 1 216 144 A 7.9999996 7.9999996 0 0 1 208 136 A 7.9999996 7.9999996 0 0 1 216 128 z M 216 160 A 7.9999996 7.9999996 0 0 1 224 168 A 7.9999996 7.9999996 0 0 1 216 176 A 7.9999996 7.9999996 0 0 1 208 168 A 7.9999996 7.9999996 0 0 1 216 160 z "
       transform="matrix(0.26458333,0,0,0.26458333,0,229.26668)"
       id="rect4658" />
    <path
       style="fill:#009aff;fill-opacity:1;stroke:none;stroke-width:0.99999994;stroke-opacity:1"
       d="M 64 128 L 64 144 L 48 144 L 48 160 L 64 160 L 64 176 L 80 176 L 80 160 L 96 160 L 96 144 L 80 144 L 80 128 L 64 128 z "
       transform="matrix(0.26458333,0,0,0.26458333,0,229.26668)"
       id="rect4663" />
    <circle
       style="fill:#009aff;fill-opacity:1;stroke:none;stroke-width:0.26458332;stroke-opacity:1"
       id="path4668"
       cx="35.983334"
       cy="269.48334"
       r="2.1166666" />
    <circle
       style="fill:#009aff;fill-opacity:1;stroke:none;stroke-width:0.26458332;stroke-opacity:1"
       id="path4670"
       cx="40.216667"
       cy="273.71667"
       r="2.1166666" />
    <circle
       style="fill:#009aff;fill-opacity:1;stroke:none;stroke-width:0.26458332;stroke-opacity:1"
       id="path4672"
       cx="44.450001"
       cy="269.48334"
       r="2.1166666" />
    <circle
       style="fill:#009aff;fill-opacity:1;stroke:none;stroke-width:0.26458332;stroke-opacity:1"
       id="path4674"
       cx="40.216667"
       cy="265.25"
       r="2.1166666" />
    <circle
       style="fill:#009aff;fill-opacity:1;stroke:none;stroke-width:0.26458332;stroke-opacity:1"
       id="path4676"
       cx="23.283333"
       cy="239.85002"
       r="2.1166666" />
    <path
       style="fill:#009aff;fill-opacity:1;stroke:none;stroke-width:0.22136633;stroke-opacity:1"
       d="m 22.469803,240.52694 9.477081,11.3894 1.627057,-1.35386 -9.477081,-11.38942 z"
       id="rect4680"
       inkscape:connector-curvature="0"
       inkscape:transform-center-y="5.6946986"
       inkscape:transform-center-x="-4.7385397" />
    <circle
       style="fill:#009aff;fill-opacity:1;stroke:none;stroke-width:0.26458332;stroke-opacity:1"
       id="path4676-7"
       cx="-44.449997"
       cy="239.85002"
       r="2.1166666"
       transform="scale(-1,1)" />
    <path
       style="fill:#009aff;fill-opacity:1;stroke:none;stroke-width:0.22136633;stroke-opacity:1"
       d="m 45.263528,240.52694 -9.47708,11.3894 -1.627058,-1.35386 9.477081,-11.38942 z"
       id="rect4680-5"
       inkscape:connector-curvature="0"
       inkscape:transform-center-y="5.6946986"
       inkscape:transform-center-x="4.7385397" />
  </g>
</svg>
