<?xml version="1.0" encoding="UTF-8" standalone="no"?>
<svg
   xmlns:dc="http://purl.org/dc/elements/1.1/"
   xmlns:cc="http://creativecommons.org/ns#"
   xmlns:rdf="http://www.w3.org/1999/02/22-rdf-syntax-ns#"
   xmlns:svg="http://www.w3.org/2000/svg"
   xmlns="http://www.w3.org/2000/svg"
   id="svg8"
   version="1.1"
   viewBox="0 0 67.733331 67.733331"
   height="256"
   width="256">
  <defs
     id="defs2" />
  <metadata
     id="metadata5">
    <rdf:RDF>
      <cc:Work
         rdf:about="">
        <dc:format>image/svg+xml</dc:format>
        <dc:type
           rdf:resource="http://purl.org/dc/dcmitype/StillImage" />
        <dc:title></dc:title>
      </cc:Work>
    </rdf:RDF>
  </metadata>
  <g
     style="display:inline"
     transform="translate(0,-229.26668)"
     id="layer1">
    <path
       transform="matrix(0.26458333,0,0,0.26458333,0,229.26668)"
       id="rect4658"
       d="M 32 80 C 23.163449 80 16.000008 87.163465 16 96 L 16 208 C 16.000015 216.83654 23.163449 224 32 224 L 55.564453 224 L 55.564453 208 L 32 208 L 32 96 L 192 96 L 192 186.66992 L 201.23047 186.66992 L 201.23047 204.28906 L 201.23047 210.34961 L 209.85156 186.66992 L 235.13477 186.66992 L 240 200.34961 L 240 96 C 239.99999 87.163465 232.83655 80 224 80 L 32 80 z M 216 96 A 7.9999995 7.9999995 0 0 1 224 104 A 7.9999995 7.9999995 0 0 1 216 112 A 7.9999995 7.9999995 0 0 1 208 104 A 7.9999995 7.9999995 0 0 1 216 96 z M 216 128 A 7.9999995 7.9999995 0 0 1 224 136 A 7.9999995 7.9999995 0 0 1 216 144 A 7.9999995 7.9999995 0 0 1 208 136 A 7.9999995 7.9999995 0 0 1 216 128 z M 216 160 A 7.9999995 7.9999995 0 0 1 224 168 A 7.9999995 7.9999995 0 0 1 216 176 A 7.9999995 7.9999995 0 0 1 208 168 A 7.9999995 7.9999995 0 0 1 216 160 z M 151.21094 211.84961 L 151.21094 224 L 158.06055 224 L 158.06055 211.84961 L 152.54688 211.84961 L 151.21094 211.84961 z M 185.58008 211.84961 L 185.58008 224 L 196.25977 224 L 200.68359 211.84961 L 185.58008 211.84961 z M 105.7832 218.24219 C 105.76225 218.27088 105.74374 218.30149 105.72266 218.33008 C 105.74029 218.34711 105.76412 218.35601 105.7832 218.37109 L 105.7832 218.24219 z "
       style="fill:#009aff;fill-opacity:1;stroke:none;stroke-width:0.93541414;stroke-opacity:1" />
    <path
       id="rect4663"
       transform="matrix(0.26458333,0,0,0.26458333,0,229.26668)"
       d="m 64,128 v 16 H 48 v 16 h 16 v 16 H 80 V 160 H 96 V 144 H 80 v -16 z"
       style="fill:#009aff;fill-opacity:1;stroke:none;stroke-width:0.99999994;stroke-opacity:1" />
    <circle
       r="2.1166666"
       cy="269.48334"
       cx="35.983334"
       id="path4668"
       style="fill:#009aff;fill-opacity:1;stroke:none;stroke-width:0.26458332;stroke-opacity:1" />
    <circle
       r="2.1166666"
       cy="273.71667"
       cx="40.216667"
       id="path4670"
       style="fill:#009aff;fill-opacity:1;stroke:none;stroke-width:0.26458332;stroke-opacity:1" />
    <circle
       r="2.1166666"
       cy="269.48334"
       cx="44.450001"
       id="path4672"
       style="fill:#009aff;fill-opacity:1;stroke:none;stroke-width:0.26458332;stroke-opacity:1" />
    <circle
       r="2.1166666"
       cy="265.25"
       cx="40.216667"
       id="path4674"
       style="fill:#009aff;fill-opacity:1;stroke:none;stroke-width:0.26458332;stroke-opacity:1" />
    <circle
       r="2.1166666"
       cy="239.85002"
       cx="23.283333"
       id="path4676"
       style="fill:#009aff;fill-opacity:1;stroke:none;stroke-width:0.26458332;stroke-opacity:1" />
    <path
       id="rect4680"
       d="m 22.469803,240.52694 9.477081,11.3894 1.627057,-1.35386 -9.477081,-11.38942 z"
       style="fill:#009aff;fill-opacity:1;stroke:none;stroke-width:0.22136633;stroke-opacity:1" />
    <circle
       transform="scale(-1,1)"
       r="2.1166666"
       cy="239.85002"
       cx="-44.449997"
       id="path4676-7"
       style="fill:#009aff;fill-opacity:1;stroke:none;stroke-width:0.26458332;stroke-opacity:1" />
    <path
       id="rect4680-5"
       d="m 45.263528,240.52694 -9.47708,11.3894 -1.627058,-1.35386 9.477081,-11.38942 z"
       style="fill:#009aff;fill-opacity:1;stroke:none;stroke-width:0.22136633;stroke-opacity:1" />
  </g>
  <g
     style="display:inline"
     id="layer2">
    <path
       id="rect959"
       d="m 26.404073,65.021354 c -17.6027154,1.807987 -8.801358,0.903994 0,0 z M 21.988322,51.744128 c 1.576734,0 2.749121,0.293693 3.535185,0.829924 0.78799,0.537543 1.152386,1.232336 1.152386,2.216917 0,0.702387 -0.228554,1.287325 -0.709003,1.816428 v 0.0021 c -0.480429,0.53586 -1.090836,0.907124 -1.857767,1.120859 l -0.259416,0.07235 v 0.623218 l 0.312642,0.03876 c 0.97027,0.120491 1.704352,0.467577 2.257744,1.039212 h 0.0021 v 0.0021 c 0.561568,0.573675 0.829927,1.239462 0.829927,2.07006 0,1.244481 -0.422334,2.172631 -1.297079,2.892846 -0.874025,0.712856 -2.082342,1.08572 -3.673678,1.08572 H 17.05684 V 51.744128 Z m 16.017627,0 v 1.953369 h -5.103564 v 3.939293 h 4.750096 v 1.943034 h -4.750096 v 4.031279 h 5.437394 v 1.94355 H 30.343885 V 51.744128 Z m 12.880866,0 v 1.953369 H 46.745983 V 65.554653 H 44.175598 V 53.697497 h -4.120679 v -1.953369 z m 9.664012,0 4.911844,13.810525 H 62.660257 L 61.628795,62.32436 h -5.685441 l -1.021643,3.230293 H 52.14462 l 5.027084,-13.810525 z m -4.134633,8.779309 h 4.68912 l -2.34456,-7.309115 z M 19.617407,53.798782 v 3.798736 h 1.792656 c 1.400039,-0.03304 2.513148,-0.79212 2.533175,-2.198833 0,-0.62181 -0.266172,-1.168942 -0.755509,-1.496549 -0.489347,-0.327607 -1.154319,-0.458888 -1.990577,-0.458888 h -1.579748 z m 0,5.873027 v 4.183724 h 2.126485 c 0.810378,0 1.491337,-0.191627 1.996261,-0.607713 0.509953,-0.414338 0.779281,-1.020723 0.779281,-1.712558 -0.09754,-1.595975 -1.390813,-2.207358 -2.753834,-2.218986 h -2.14819 z"
       style="display:inline;opacity:1;fill:#009aff;fill-opacity:1;stroke:none;stroke-width:0.66917652;stroke-linecap:round;stroke-linejoin:miter;stroke-miterlimit:4;stroke-dasharray:none;stroke-dashoffset:0;stroke-opacity:1;paint-order:fill markers stroke" />
  </g>
</svg>
