<svg version="1" xmlns="http://www.w3.org/2000/svg" width="933.333" height="933.333" viewBox="0 0 700.000000 700.000000"><path d="M232.3 89.5c-2.7 1.2-6 3.5-7.5 5.1-12.6 13.5-3 36.4 15.2 36.4 2.3 0 4.7.6 5.3 1.2.7.7 5.5 6.5 10.7 12.8 11.2 13.5 13.2 15.9 14.5 17.4.6.6 4.2 4.9 8 9.6 3.8 4.7 7.2 8.7 7.5 9 .3.3 4.1 4.8 8.4 10 4.3 5.2 8.8 10.6 10 12 2.4 2.8 9.5 11.7 11.4 14.1 1.2 1.6-7.3 1.7-115.5 1.7-64.2.1-118.1.3-119.8.6-18.1 2.8-33 18-36.2 36.6-.7 4.3-.7 315.5 0 319 2.1 10.3 5.9 17.9 12.1 24.2 5.5 5.5 11.7 9.2 19.5 11.5 5.2 1.6 25.6 1.7 274.6 1.7 258.7 0 269.2-.1 274.5-1.8 16.9-5.7 28-18.8 30.7-36.1.3-1.7.5-73.7.5-160 .1-146.5 0-157.4-1.6-163-2.4-8.2-4.7-12.2-10.1-18.3-4.9-5.5-14.5-11.5-20.5-12.8-1.9-.4-4.2-.9-5-1.1-.8-.2-54.3-.4-118.8-.4-108.4-.1-117.2-.3-116-1.8.7-.9 6.4-7.9 12.8-15.6 6.3-7.7 12.2-14.8 13-15.9.8-1 2.2-2.6 3-3.5.9-.9 4.7-5.4 8.5-10.1 3.9-4.7 7.4-9 8-9.6.5-.6 6.6-7.9 13.5-16.2l12.5-15.2h4.3c15.2 0 25.7-16.7 19.3-30.5-7.9-16.9-31.5-17-39.5-.1-1.8 3.7-2.4 10.8-1.3 14.2.6 1.7-1.5 4.8-10.8 16-6.4 7.6-12.5 14.9-13.6 16.2-1.1 1.3-5 6-8.7 10.5-3.7 4.5-16.8 20.2-29 34.9-22 26.5-22.3 26.8-26.1 26.8-4.4 0-1.4 3.2-31.1-32.5-12.3-14.9-22.7-27.2-23-27.5-.3-.3-3.4-4.1-7-8.5-3.5-4.4-6.7-8.2-7-8.5-.3-.3-4.8-5.7-10-12s-9.9-11.8-10.4-12.1c-.5-.4-.5-1.2-.2-1.8 1.3-2 .8-11.5-.8-15.2-4.6-11-17.9-16.3-28.3-11.4zm292.2 326v153l-218.2.1c-160.7.1-218.3-.1-218.5-1-.4-1-.2-303.3.1-304.6 0-.3 98.3-.5 218.4-.5h218.2v153zm76.5-150c6.6 3.4 12.3 14.1 11.3 20.9-1.7 11.6-12.3 20.4-23.3 19.4-16.3-1.6-25.3-19.8-16.2-33 6.7-9.8 17.8-12.7 28.2-7.3zm-1.1 87c10.5 5.4 15.3 18.4 10.3 28-5.9 11.6-18.3 16.1-29 10.6-14.5-7.5-16.2-25.6-3.5-36.4 5.5-4.7 15.5-5.7 22.2-2.2zm.6 87.7c6.7 3.5 11.6 11.5 11.7 18.8.1 15-16 26.2-29.3 20.6-7.8-3.3-13.9-12.1-13.9-20 0-16 17.4-26.7 31.5-19.4z"/><path d="M175 371.8v21.9h-20.9c-11.4 0-21.3.3-21.9.7-1.1.7-1.5 42.5-.4 42.7.4.1 10.2.2 21.7.3l21 .1.3 21.8.2 21.7h9.8c17.6.1 28.7.1 31.4.1l2.7-.1v-16.8-21.7l.1-5h43.5v-21.8c0-13.9-.3-21.7-1-21.8-.5 0-10.3-.1-21.7-.1H219l-.1-6.2c0-3.3 0-13.2-.1-21.9V350H175v21.8zM405.5 353c-17.5 8.8-14.2 35 5 39.9 18.1 4.6 32.9-14.8 24.2-31.6-.9-1.7-3.4-4.5-5.4-6.2-6.9-5.7-15.2-6.5-23.8-2.1zM362 396.3c-5.4 2.9-10.5 9.9-11.5 15.7-2.2 12.9 8.1 25.3 21 25.2 12.1 0 21.4-8.7 21.9-20.5.6-12.4-7.8-21.6-20.3-22.4-5.6-.4-7.3-.1-11.1 2zM451 395.6c-17.3 7.5-17.6 31.7-.5 39.8 7.2 3.5 18.9 1.3 24.5-4.5 5.5-5.8 7.6-16.2 4.7-23.2-4.7-11.1-18-16.7-28.7-12.1zM411.5 438c-13.8 3-21.3 17.8-15.5 30.4 4.8 10.7 17.9 15.6 28.6 10.7 13.7-6.2 17-24.4 6.3-35-5-5.1-12.9-7.5-19.4-6.1z"/></svg>